<?xml version="1.0" standalone="no"?>
<!DOCTYPE svg PUBLIC "-//W3C//DTD SVG 20010904//EN"
 "http://www.w3.org/TR/2001/REC-SVG-20010904/DTD/svg10.dtd">
<svg version="1.0" xmlns="http://www.w3.org/2000/svg"
 width="1024.000000pt" height="1024.000000pt" viewBox="0 0 1024.000000 1024.000000"
 preserveAspectRatio="xMidYMid meet">

<g transform="translate(0.000000,1024.000000) scale(0.100000,-0.100000)"
fill="#000000" stroke="none">
<path d="M4805 10143 c-300 -23 -492 -49 -704 -94 -650 -138 -1305 -428 -1823
-807 -279 -203 -623 -520 -841 -772 -407 -473 -729 -1035 -943 -1647 -209
-597 -294 -1139 -281 -1802 5 -266 10 -338 38 -561 59 -464 194 -936 398
-1392 57 -127 77 -167 161 -323 302 -563 735 -1086 1225 -1481 914 -737 1969
-1123 3080 -1126 653 -2 1313 140 1935 414 25 11 117 56 205 100 702 352 1276
825 1734 1427 537 706 868 1479 991 2316 35 236 44 393 43 725 0 337 -12 504
-54 795 -100 686 -339 1331 -725 1955 -312 506 -746 976 -1229 1335 -247 183
-408 282 -720 440 -686 348 -1389 508 -2200 503 -137 -1 -268 -3 -290 -5z
m770 -503 c1197 -128 2247 -714 2988 -1665 362 -466 659 -1084 810 -1691 88
-352 125 -632 134 -1029 22 -966 -235 -1853 -770 -2655 -240 -359 -561 -715
-876 -971 -724 -586 -1523 -906 -2446 -980 -325 -26 -752 0 -1097 66 -716 138
-1404 462 -1953 921 -638 534 -1117 1231 -1389 2024 -384 1117 -312 2406 194
3465 317 665 808 1268 1370 1685 494 366 1138 647 1760 769 128 25 360 58 495
70 125 12 646 6 780 -9z"/>
<path d="M5110 9323 c-494 -21 -1101 -168 -1482 -359 -92 -46 -115 -68 -110
-104 5 -36 34 -59 77 -61 18 -1 86 23 165 59 161 71 421 158 620 207 288 70
476 95 781 102 448 10 817 -42 1144 -163 80 -30 98 -33 117 -23 49 26 53 77 8
119 -81 75 -495 182 -815 209 -131 11 -402 19 -505 14z"/>
<path d="M5085 9083 c-533 -44 -959 -159 -1435 -386 -214 -102 -488 -273 -550
-343 -32 -37 -33 -71 -2 -106 30 -35 71 -22 197 62 509 342 1157 570 1761 621
169 14 508 6 684 -16 385 -49 718 -149 1042 -311 48 -24 96 -44 106 -44 31 0
62 29 62 59 0 47 -37 79 -159 140 -329 165 -780 283 -1216 321 -111 9 -396 11
-490 3z"/>
<path d="M4880 8798 c-707 -65 -1323 -336 -1946 -854 -128 -107 -154 -138
-154 -187 0 -41 28 -67 71 -67 28 0 41 9 167 118 176 152 514 383 715 487 351
183 713 298 1104 350 385 50 903 15 1320 -91 410 -103 687 -231 1024 -473 40
-29 51 -32 75 -24 16 5 36 21 44 36 13 23 13 30 -2 61 -37 76 -374 284 -635
391 -326 132 -708 222 -1088 255 -142 12 -560 11 -695 -2z"/>
<path d="M4915 8558 c-231 -17 -510 -71 -725 -142 -295 -96 -583 -256 -872
-483 -65 -51 -207 -159 -315 -241 -217 -163 -395 -312 -430 -360 -28 -38 -29
-76 -3 -102 30 -30 63 -24 123 23 193 150 270 206 398 290 478 315 1109 530
1729 586 146 14 469 14 625 0 479 -41 943 -164 1290 -342 117 -60 297 -177
410 -267 75 -60 274 -252 395 -383 51 -55 55 -58 89 -52 49 9 61 21 61 63 0
39 -20 67 -150 210 -84 94 -233 228 -360 322 -434 327 -1018 530 -1695 590
-232 21 -618 11 -860 -21 -228 -30 -619 -126 -828 -203 -54 -19 -95 -31 -92
-26 3 5 42 30 87 55 282 159 595 257 988 312 157 21 619 24 785 5 637 -75
1142 -257 1550 -558 39 -28 117 -90 174 -138 57 -47 114 -89 127 -92 12 -3 36
2 53 10 63 33 34 98 -92 203 -189 159 -350 265 -574 377 -579 292 -1213 414
-1888 364z"/>
<path d="M4840 8023 c-430 -42 -733 -111 -1070 -245 -327 -130 -655 -315 -905
-512 -231 -182 -498 -440 -508 -492 -5 -28 22 -69 52 -77 33 -8 72 20 228 167
367 344 699 565 1137 755 462 201 1039 304 1529 273 790 -50 1410 -290 1888
-729 237 -218 465 -501 578 -719 17 -34 40 -69 50 -79 28 -24 79 -16 104 17
18 25 19 31 8 69 -40 134 -324 510 -558 740 -327 321 -655 520 -1103 669 -261
87 -498 136 -770 160 -105 9 -577 12 -660 3z"/>
<path d="M4830 7759 c-445 -46 -859 -166 -1275 -369 -330 -161 -585 -334 -877
-594 -163 -145 -439 -465 -486 -563 -18 -39 -8 -72 32 -99 42 -27 68 -12 146
88 41 51 88 111 106 134 333 418 889 820 1422 1028 600 234 1189 299 1812 200
292 -46 513 -116 777 -244 319 -156 494 -280 739 -524 157 -158 257 -277 362
-433 54 -80 210 -381 257 -498 68 -166 105 -233 137 -244 57 -20 116 29 102
85 -13 50 -181 401 -243 508 -336 575 -767 992 -1276 1237 -327 157 -658 245
-1064 284 -167 16 -530 18 -671 4z"/>
<path d="M4735 7505 c-409 -52 -726 -149 -1070 -329 -556 -290 -964 -647
-1282 -1121 -70 -104 -288 -474 -339 -574 -28 -55 -33 -73 -25 -93 11 -30 29
-44 63 -53 38 -10 60 17 141 177 37 73 84 155 104 183 34 46 37 48 46 28 32
-73 -137 -419 -321 -655 -41 -53 -44 -61 -36 -90 13 -44 52 -63 92 -46 61 27
185 192 282 377 105 200 110 109 6 -104 -76 -153 -194 -335 -301 -460 -101
-119 -110 -136 -91 -174 17 -32 34 -41 76 -41 23 0 42 15 94 73 145 162 269
344 370 545 49 99 83 142 98 126 3 -2 1 -26 -4 -52 -20 -95 -148 -333 -281
-521 -55 -77 -217 -255 -305 -334 -18 -17 -40 -43 -48 -60 -15 -27 -14 -32 3
-55 49 -66 100 -43 259 114 181 180 304 348 454 619 85 154 114 195 141 195
40 0 10 -91 -93 -273 -183 -324 -404 -590 -636 -765 -41 -30 -78 -65 -84 -78
-15 -33 3 -77 36 -89 38 -13 101 22 236 128 232 183 429 430 665 832 100 171
119 195 152 195 21 0 23 -4 17 -22 -36 -120 -223 -428 -382 -633 -134 -172
-321 -371 -474 -506 -162 -143 -188 -171 -188 -205 0 -34 34 -64 72 -64 17 0
91 18 162 39 428 129 673 165 1236 181 395 11 525 31 703 107 291 123 490 357
552 649 20 94 18 262 -3 344 -49 186 -203 337 -429 419 -102 38 -376 97 -526
114 l-117 13 -37 -39 c-50 -51 -108 -81 -144 -73 -21 4 -31 1 -38 -12 -14 -26
-81 -27 -137 -2 -45 19 -46 21 -39 56 l6 37 -37 -6 c-20 -3 -45 -2 -55 3 -23
13 -49 2 -49 -20 0 -29 -26 -43 -65 -36 -31 6 -39 3 -60 -22 -30 -36 -81 -49
-106 -26 -16 14 -19 14 -33 -9 -9 -13 -34 -32 -56 -42 -39 -17 -41 -17 -60 0
-11 10 -20 29 -20 42 0 21 -4 23 -45 23 -40 0 -48 4 -65 33 -13 19 -20 47 -19
72 2 78 1 83 -30 90 -32 7 -75 49 -86 83 -10 33 2 59 40 82 18 11 38 34 44 51
6 16 19 42 29 57 31 44 32 89 4 143 -24 47 -24 49 -8 95 25 75 73 111 139 105
14 -2 17 7 17 57 0 51 4 62 28 85 39 37 97 60 122 47 30 -16 40 -12 40 18 0
49 25 72 79 72 46 0 49 2 64 38 9 20 19 51 22 67 6 39 46 73 93 81 33 5 40 11
55 49 28 66 98 89 173 56 39 -18 53 -20 80 -11 18 6 52 11 74 12 38 0 41 2 35
22 -12 38 -5 77 20 114 14 20 25 49 25 65 0 59 113 118 186 98 35 -10 40 -8
75 24 65 58 129 58 235 -1 63 -34 74 -35 74 -2 0 10 9 36 19 57 26 50 81 76
131 61 29 -9 37 -8 45 6 69 112 170 128 275 44 24 -20 28 -20 63 -5 52 21 62
19 106 -20 46 -41 54 -43 74 -11 39 59 209 76 263 25 13 -12 24 -32 24 -45 0
-33 22 -45 68 -38 49 8 141 -17 166 -45 14 -15 23 -18 37 -11 30 16 54 11 95
-20 48 -36 51 -36 76 -5 47 60 152 74 238 31 42 -21 51 -23 67 -11 10 8 26 15
35 15 25 0 88 -40 88 -56 0 -7 33 -29 73 -48 81 -39 95 -57 106 -139 l6 -49
39 31 c33 26 47 31 95 31 90 0 128 -15 157 -62 23 -36 29 -40 56 -34 19 4 45
-1 72 -13 47 -20 117 -77 113 -92 -1 -6 16 -16 37 -24 61 -21 126 -101 126
-155 0 -24 4 -31 18 -29 54 5 102 -30 102 -75 0 -16 10 -32 30 -46 38 -27 39
-69 5 -125 -14 -22 -25 -43 -25 -47 0 -5 18 -8 40 -8 45 0 80 -27 80 -60 0
-14 12 -25 40 -36 75 -30 103 -95 75 -173 -17 -50 -13 -59 37 -75 71 -24 59
-114 -25 -198 -51 -51 -52 -53 -57 -122 -5 -66 -7 -72 -34 -85 -23 -11 -33
-11 -52 0 -21 11 -27 10 -48 -10 -13 -12 -39 -24 -59 -28 -30 -4 -37 -2 -52
20 -23 35 -48 41 -86 22 -30 -16 -43 -16 -80 -1 -10 5 -28 -3 -48 -20 -44 -36
-105 -36 -135 1 -19 23 -24 24 -51 14 -27 -10 -35 -9 -69 15 -21 14 -42 26
-46 26 -4 0 -15 -17 -24 -38 -34 -76 -141 -127 -184 -89 -15 14 -24 14 -54 5
-43 -13 -68 -6 -68 20 0 42 -22 45 -136 17 -301 -72 -530 -189 -677 -345 -131
-138 -185 -268 -194 -464 -18 -369 151 -601 492 -677 93 -20 136 -23 585 -29
501 -8 555 -12 783 -59 172 -36 348 -91 584 -182 192 -75 228 -76 252 -8 13
39 2 63 -42 85 -46 24 -355 196 -467 262 -387 225 -664 490 -781 748 -77 169
-124 354 -103 408 9 23 54 21 54 -3 0 -36 83 -277 122 -356 86 -171 221 -331
403 -478 149 -120 258 -188 480 -298 281 -138 360 -163 398 -121 23 26 31 73
15 94 -7 10 -69 40 -138 69 -379 155 -709 395 -869 632 -114 171 -201 378
-187 451 5 26 12 36 25 36 13 0 29 -26 60 -97 167 -384 438 -647 911 -884 170
-85 178 -87 217 -55 36 30 46 67 26 96 -8 11 -73 49 -145 85 -208 105 -324
182 -485 323 -187 163 -357 472 -317 576 12 31 33 15 64 -46 126 -247 328
-465 585 -630 156 -100 213 -130 252 -131 47 -1 75 32 71 82 -3 33 -10 39 -99
96 -270 169 -439 335 -539 528 -52 101 -60 145 -31 168 12 10 28 16 35 13 8
-3 44 -51 81 -107 90 -135 133 -186 234 -274 116 -101 227 -175 260 -171 27 3
71 58 71 89 0 10 -35 44 -83 82 -211 165 -373 400 -433 627 -24 92 -15 194 15
176 6 -4 25 -35 42 -69 17 -34 41 -77 54 -97 12 -19 45 -80 75 -135 29 -55 71
-127 94 -160 40 -57 44 -60 88 -63 43 -3 48 -1 62 27 9 16 16 38 16 48 0 9
-29 65 -64 123 -111 182 -146 249 -315 605 -137 288 -336 554 -559 747 -369
319 -764 519 -1297 659 -138 36 -250 56 -440 79 -103 13 -564 9 -680 -5z
m-638 -2456 c-87 -230 -319 -574 -485 -718 -119 -102 -225 -172 -239 -157 -4
4 29 44 74 89 206 210 342 394 522 704 87 151 115 183 139 160 11 -12 9 -24
-11 -78z m-314 33 c-3 -66 -132 -297 -261 -467 -129 -171 -531 -530 -560 -501
-3 4 42 55 99 114 237 243 421 479 579 742 34 58 74 115 88 128 34 32 57 25
55 -16z m2575 11 c6 -16 24 -66 41 -113 65 -186 153 -357 248 -485 81 -108
258 -286 336 -338 52 -35 76 -57 62 -57 -19 0 -150 68 -219 114 -226 151 -383
361 -472 632 -40 122 -55 234 -34 259 18 21 26 19 38 -12z m-1948 -11 c0 -93
-166 -409 -303 -577 -119 -145 -224 -245 -312 -296 -82 -48 -82 -33 3 54 172
177 327 392 487 677 88 159 96 170 110 170 10 0 15 -10 15 -28z m1678 -24 c11
-29 41 -118 67 -198 93 -283 195 -461 353 -618 88 -88 92 -94 60 -87 -58 11
-156 66 -217 122 -137 124 -261 374 -320 646 -24 110 -26 158 -9 175 26 26 46
13 66 -40z m-2648 16 c0 -61 -182 -356 -343 -557 -153 -190 -432 -452 -512
-481 -11 -4 30 41 90 101 183 180 320 356 552 708 80 121 155 228 167 237 30
25 46 22 46 -8z m1200 -127 c0 -12 -9 -56 -21 -97 -56 -202 -201 -421 -369
-555 -140 -112 -192 -127 -102 -30 153 163 269 330 382 550 40 77 77 146 82
152 14 17 28 7 28 -20z m1154 1 c8 -13 33 -81 57 -153 23 -71 59 -168 79 -215
41 -95 145 -273 198 -337 30 -38 32 -43 15 -43 -24 0 -84 39 -136 88 -153 146
-322 567 -263 657 20 31 31 32 50 3z m-192 -363 c80 -186 113 -278 105 -299
-24 -62 -145 85 -189 228 -21 70 -29 195 -15 230 12 31 27 7 99 -159z"/>
<path d="M4912 6169 c7 -19 -28 -86 -51 -99 -42 -22 -118 -8 -176 34 -17 12
-27 12 -72 -1 -29 -9 -53 -18 -53 -22 1 -6 25 -22 200 -128 58 -35 122 -78
143 -95 38 -32 39 -33 54 -13 18 24 89 173 109 229 18 49 11 58 -68 80 -32 9
-65 19 -74 23 -12 4 -15 2 -12 -8z"/>
<path d="M5154 6047 c-55 -81 -84 -170 -84 -252 1 -49 24 -203 33 -212 3 -2
29 21 58 53 30 31 101 94 159 141 109 87 180 165 180 197 0 14 -5 17 -22 12
-73 -21 -125 -19 -189 10 -35 15 -75 40 -89 55 l-25 28 -21 -32z"/>
<path d="M4474 6009 c-12 -26 -30 -45 -51 -56 -39 -18 -42 -38 -15 -135 25
-90 63 -133 199 -231 64 -45 158 -120 210 -166 52 -46 96 -81 100 -78 13 14
35 214 28 273 -9 88 -38 123 -193 233 -71 51 -156 117 -189 146 -32 30 -61 55
-65 55 -4 0 -15 -18 -24 -41z"/>
<path d="M4284 5939 c-10 -12 -50 -37 -87 -55 -62 -32 -88 -56 -74 -70 3 -3
51 -21 107 -40 55 -19 110 -39 121 -44 24 -14 24 -7 -2 48 -13 26 -24 72 -27
113 -2 38 -8 69 -12 69 -4 0 -15 -9 -26 -21z"/>
<path d="M5459 5777 c-235 -244 -274 -310 -286 -482 -6 -96 9 -210 31 -241 11
-14 21 -8 87 57 42 41 122 106 180 144 57 39 129 95 161 125 47 46 59 66 77
124 24 77 29 197 8 214 -6 6 -25 14 -40 17 -65 17 -86 95 -42 159 31 45 31 46
3 45 -16 0 -71 -50 -179 -162z"/>
<path d="M3975 5748 c-12 -30 -24 -39 -89 -64 -42 -16 -77 -34 -80 -40 -3 -7
41 -17 122 -28 70 -10 170 -27 222 -38 88 -18 260 -38 260 -30 0 19 -186 139
-286 184 -123 56 -131 57 -149 16z"/>
<path d="M5820 5730 c-10 -6 -16 -39 -20 -127 -4 -79 -12 -129 -23 -151 l-16
-33 38 22 c70 39 185 133 215 176 38 54 30 64 -76 98 -90 28 -97 29 -118 15z"/>
<path d="M6136 5619 c-8 -12 -43 -51 -77 -86 -34 -35 -60 -65 -58 -68 5 -4
209 47 263 66 20 7 36 16 36 21 0 4 -18 12 -39 19 -22 6 -54 25 -71 40 -17 16
-33 29 -35 29 -2 0 -11 -10 -19 -21z"/>
<path d="M4945 3830 c-33 -17 -143 -66 -244 -110 -288 -125 -389 -197 -489
-350 -32 -49 -73 -124 -92 -167 -122 -289 -133 -308 -295 -508 -53 -66 -129
-172 -168 -235 -100 -163 -171 -228 -358 -329 -77 -42 -133 -55 -109 -26 7 9
43 32 79 52 168 91 200 125 299 318 29 55 85 140 126 191 l73 90 -152 -62
c-229 -93 -278 -130 -355 -266 -17 -32 -33 -58 -34 -58 -9 0 14 92 32 126 45
87 111 136 348 253 246 123 285 153 343 270 33 65 124 301 118 307 -7 7 -196
-64 -240 -89 -26 -15 -60 -42 -77 -60 -36 -37 -100 -160 -100 -191 0 -11 -5
-28 -11 -36 -17 -24 -2 93 20 156 37 103 72 134 266 234 137 70 179 98 265
178 71 65 185 190 179 197 -6 6 -352 -117 -464 -164 -55 -24 -137 -67 -181
-97 -149 -98 -230 -210 -308 -422 -46 -126 -97 -221 -138 -258 -13 -12 -68
-44 -123 -72 -121 -60 -190 -113 -252 -193 -26 -32 -48 -58 -50 -56 -1 2 4 24
13 49 25 75 110 159 226 225 174 98 195 126 233 313 14 67 25 125 25 128 0 3
-12 -6 -27 -20 -55 -50 -173 -106 -403 -192 -69 -26 -160 -67 -203 -92 -44
-25 -81 -43 -83 -41 -13 12 102 95 186 134 377 175 452 223 633 408 76 77 143
145 148 151 21 25 -185 -20 -308 -67 -106 -41 -178 -82 -383 -220 -96 -64
-239 -152 -318 -195 -206 -112 -247 -168 -189 -255 31 -47 153 -107 237 -116
l63 -6 -49 -22 c-78 -35 -122 -97 -109 -156 10 -44 103 -122 192 -160 70 -30
87 -34 174 -34 l96 0 -46 -31 c-62 -42 -81 -65 -87 -105 -11 -72 66 -179 157
-219 41 -17 66 -21 128 -18 42 2 84 8 94 12 16 8 17 4 12 -40 -19 -138 91
-277 229 -291 49 -5 61 -3 96 21 22 14 42 26 45 26 3 0 5 -14 5 -30 0 -39 31
-100 77 -151 74 -82 275 -175 438 -204 189 -33 338 -13 443 60 l51 34 11 -35
c38 -114 210 -188 435 -188 204 1 396 80 451 187 l16 29 18 -30 c11 -17 38
-44 61 -59 36 -24 52 -28 108 -27 144 2 273 101 296 227 l7 37 40 -45 c27 -31
52 -48 81 -56 138 -37 356 79 423 224 24 53 25 54 74 60 57 7 176 54 231 93
47 32 156 163 186 223 29 57 29 96 -1 154 -26 52 -24 54 27 32 50 -21 133 -19
184 4 53 25 119 91 144 144 37 83 16 147 -65 200 l-41 27 67 -7 c126 -11 206
33 266 145 60 113 49 197 -32 236 l-40 19 60 17 c72 20 112 40 140 72 29 31
54 82 54 108 0 33 -35 93 -70 118 -46 34 -250 142 -431 228 -201 95 -294 119
-434 110 -111 -7 -155 -14 -155 -24 0 -4 17 -15 38 -24 34 -16 103 -62 294
-194 120 -84 264 -146 393 -169 47 -9 125 -46 108 -52 -7 -2 -21 1 -33 7 -11
6 -85 24 -163 39 -79 16 -163 39 -188 51 -58 30 -187 103 -274 156 -89 54
-300 142 -312 130 -7 -7 104 -243 132 -280 36 -47 84 -72 207 -106 90 -25 156
-55 145 -66 -7 -7 -237 36 -281 53 -46 18 -102 56 -129 87 -10 12 -58 81 -108
153 -49 73 -99 139 -112 147 -31 20 -85 31 -279 56 -191 23 -315 53 -467 111
-203 78 -280 104 -286 97 -8 -8 50 -93 99 -146 47 -51 143 -117 242 -165 81
-40 132 -60 404 -159 147 -53 229 -100 336 -194 116 -101 194 -151 309 -195
78 -30 127 -41 342 -73 114 -17 198 -53 247 -105 37 -38 26 -54 -12 -18 -53
51 -197 96 -307 97 -119 0 -274 33 -387 82 -27 11 -51 18 -54 15 -17 -16 124
-221 211 -307 36 -36 123 -103 192 -150 83 -56 134 -97 147 -119 l19 -33 -49
37 c-27 21 -92 58 -144 83 -124 58 -199 110 -284 196 -38 39 -66 62 -62 51 4
-11 9 -88 11 -170 4 -159 12 -199 57 -277 29 -48 95 -120 148 -160 19 -15 30
-27 24 -28 -18 0 -167 114 -190 147 -65 88 -81 146 -93 338 -18 261 -74 409
-206 540 -93 93 -195 147 -415 220 -96 32 -217 77 -269 101 -52 24 -96 42 -98
40 -5 -4 93 -132 170 -221 100 -116 179 -189 300 -279 163 -120 194 -167 222
-337 24 -144 52 -214 110 -278 47 -51 48 -53 17 -35 -80 45 -125 118 -192 308
-23 66 -53 137 -67 158 -16 24 -65 65 -132 109 -58 39 -114 78 -124 87 -24 21
-27 13 -17 -34 5 -22 14 -112 19 -200 10 -156 26 -245 57 -310 45 -94 171
-193 391 -308 155 -81 218 -129 247 -190 18 -38 21 -81 6 -71 -5 3 -10 15 -10
26 0 47 -79 106 -281 208 -108 55 -212 109 -230 120 -19 12 -37 21 -41 21 -3
0 9 -32 28 -71 102 -210 132 -442 67 -524 -15 -19 -15 -19 -8 5 38 135 -4 303
-133 528 -112 197 -125 240 -177 610 -32 230 -101 370 -277 568 -326 367 -352
394 -362 384 -7 -7 -11 -65 -11 -153 l0 -142 44 -76 c24 -42 74 -112 112 -155
147 -168 174 -224 209 -429 31 -181 66 -267 144 -347 23 -23 31 -38 22 -38 -8
0 -45 34 -84 75 -76 82 -109 152 -139 295 -32 155 -70 219 -213 358 l-95 92
-3 -177 c-5 -344 46 -457 348 -768 94 -96 181 -196 202 -230 82 -136 105 -279
69 -431 -12 -51 -29 -100 -37 -110 -15 -18 -15 -18 -9 1 17 54 24 174 15 253
-22 177 -72 255 -310 492 -157 157 -193 198 -235 272 -28 48 -52 87 -56 88
-10 0 -39 -287 -39 -395 0 -143 17 -218 80 -356 86 -188 102 -237 103 -309 0
-47 -6 -78 -22 -110 -11 -25 -19 -34 -16 -20 15 70 17 123 5 167 -14 52 -71
171 -102 216 -11 15 -39 70 -63 123 -44 99 -65 131 -65 102 0 -8 -29 -73 -63
-144 -110 -224 -154 -370 -142 -478 5 -44 4 -48 -6 -31 -21 32 -23 180 -5 260
9 39 46 144 82 233 119 296 144 412 143 646 0 83 -3 169 -7 191 l-7 40 -72
-105 c-39 -58 -97 -134 -128 -170 -222 -254 -288 -375 -340 -624 -34 -162 -46
-198 -92 -264 -39 -57 -152 -146 -179 -140 -10 2 3 16 37 38 58 39 131 136
149 197 6 21 17 85 25 143 25 177 53 278 102 371 41 79 75 127 248 355 128
169 198 312 231 474 15 76 16 100 5 225 -7 77 -15 156 -17 175 -3 19 -8 82
-12 140 l-7 105 -87 -120 c-117 -160 -203 -307 -239 -405 -16 -44 -45 -154
-65 -243 -20 -89 -48 -193 -61 -232 -58 -162 -163 -331 -367 -595 -78 -102
-159 -209 -180 -239 -58 -82 -109 -191 -114 -243 -6 -59 -22 -53 -22 8 0 87
59 222 154 354 78 108 306 445 306 452 0 4 -19 -4 -42 -17 -49 -27 -194 -85
-348 -140 -231 -82 -391 -190 -460 -311 -41 -71 -55 -78 -30 -14 30 75 44 100
86 149 71 83 216 162 476 260 309 117 422 212 468 397 11 43 26 138 34 209 19
162 39 260 71 338 13 34 23 63 21 65 -2 2 -55 -30 -117 -71 -171 -111 -211
-163 -256 -336 -39 -154 -81 -230 -187 -339 -80 -83 -217 -184 -231 -170 -2 2
23 24 57 48 82 61 179 178 227 275 22 44 52 127 66 185 15 58 45 142 67 187
47 97 118 170 278 283 225 160 364 298 439 440 45 83 45 83 -44 40z"/>
<path d="M3009 3840 c-331 -24 -695 -126 -816 -228 -130 -111 -48 -279 158
-323 53 -12 52 -29 -2 -29 -30 0 -66 -31 -74 -63 -27 -106 141 -148 307 -78
115 48 177 85 301 174 204 147 295 207 367 241 39 19 67 37 63 39 -23 15 -187
28 -262 22 -81 -6 -115 -14 -400 -90 -74 -20 -141 -34 -149 -33 -15 3 55 30
323 126 l130 46 350 7 c373 7 447 15 615 66 96 29 280 100 294 114 6 5 -107 8
-290 7 -164 -1 -411 1 -549 4 -137 3 -302 2 -366 -2z"/>
<path d="M6425 3838 c-115 -5 -315 -7 -444 -3 -129 3 -232 2 -228 -1 27 -28
291 -106 467 -139 167 -31 239 -37 550 -45 384 -9 388 -10 673 -148 335 -164
416 -185 478 -123 22 22 29 39 29 67 0 33 -7 45 -50 85 -100 94 -405 220 -660
274 -217 46 -367 52 -815 33z"/>
</g>
</svg>
